<?xml version="1.0" encoding="UTF-8"?>
<svg xmlns="http://www.w3.org/2000/svg" xmlns:xlink="http://www.w3.org/1999/xlink" viewBox="0 0 50 50" width="50px" height="50px">
<g id="surface18004696">
<path style=" stroke:none;fill-rule:nonzero;fill:rgb(100%,100%,100%);fill-opacity:1;" d="M 41.667969 12.5 C 41.667969 12.5 36.890625 8.761719 31.25 8.332031 L 30.742188 9.351562 C 35.839844 10.597656 38.179688 12.386719 40.625 14.582031 C 36.410156 12.433594 32.25 10.417969 25 10.417969 C 17.75 10.417969 13.589844 12.433594 9.375 14.582031 C 11.820312 12.386719 14.601562 10.402344 19.257812 9.351562 L 18.75 8.332031 C 12.832031 8.894531 8.332031 12.5 8.332031 12.5 C 8.332031 12.5 3 20.234375 2.082031 35.417969 C 7.460938 41.617188 15.625 41.667969 15.625 41.667969 L 17.332031 39.390625 C 14.433594 38.382812 11.160156 36.585938 8.332031 33.332031 C 11.707031 35.886719 16.796875 38.542969 25 38.542969 C 33.203125 38.542969 38.292969 35.886719 41.667969 33.332031 C 38.839844 36.585938 35.566406 38.382812 32.667969 39.390625 L 34.375 41.667969 C 34.375 41.667969 42.539062 41.617188 47.917969 35.417969 C 47 20.234375 41.667969 12.5 41.667969 12.5 Z M 18.230469 31.25 C 16.214844 31.25 14.582031 29.382812 14.582031 27.082031 C 14.582031 24.78125 16.214844 22.917969 18.230469 22.917969 C 20.242188 22.917969 21.875 24.78125 21.875 27.082031 C 21.875 29.382812 20.242188 31.25 18.230469 31.25 Z M 31.769531 31.25 C 29.757812 31.25 28.125 29.382812 28.125 27.082031 C 28.125 24.78125 29.757812 22.917969 31.769531 22.917969 C 33.785156 22.917969 35.417969 24.78125 35.417969 27.082031 C 35.417969 29.382812 33.785156 31.25 31.769531 31.25 Z M 31.769531 31.25 "/>
</g>
</svg>
